<svg width="351" height="88" viewBox="0 0 351 88" fill="none" xmlns="http://www.w3.org/2000/svg">
<rect width="88" height="88" rx="4" fill="#8E1011"/>
<rect x="26.5" y="6.5" width="35" height="9" fill="white"/>
<path d="M46.68 80.46C42.2533 80.46 38.1733 79.7667 34.44 78.38C30.76 76.94 27.5333 74.9133 24.76 72.3C22.04 69.6867 19.9067 66.62 18.36 63.1C16.8667 59.58 16.12 55.7133 16.12 51.5C16.12 47.2867 16.8667 43.42 18.36 39.9C19.9067 36.38 22.0667 33.3133 24.84 30.7C27.6133 28.0867 30.8667 26.0867 34.6 24.7C38.3333 23.26 42.44 22.54 46.92 22.54C51.88 22.54 56.3333 23.3667 60.28 25.02C64.28 26.6733 67.64 29.0733 70.36 32.22L62.04 39.9C60.0133 37.7667 57.8 36.1933 55.4 35.18C53 34.1133 50.3867 33.58 47.56 33.58C44.84 33.58 42.36 34.0067 40.12 34.86C37.88 35.7133 35.9333 36.94 34.28 38.54C32.68 40.14 31.4267 42.0333 30.52 44.22C29.6667 46.4067 29.24 48.8333 29.24 51.5C29.24 54.1133 29.6667 56.5133 30.52 58.7C31.4267 60.8867 32.68 62.8067 34.28 64.46C35.9333 66.06 37.8533 67.2867 40.04 68.14C42.28 68.9933 44.7333 69.42 47.4 69.42C49.96 69.42 52.44 69.02 54.84 68.22C57.2933 67.3667 59.6667 65.9533 61.96 63.98L69.32 73.34C66.28 75.6333 62.7333 77.3933 58.68 78.62C54.68 79.8467 50.68 80.46 46.68 80.46ZM57.48 71.66V50.62H69.32V73.34L57.48 71.66Z" fill="white"/>
<path d="M130.944 72.768C127.403 72.768 124.139 72.2133 121.152 71.104C118.208 69.952 115.627 68.3307 113.408 66.24C111.232 64.1493 109.525 61.696 108.288 58.88C107.093 56.064 106.496 52.9707 106.496 49.6C106.496 46.2293 107.093 43.136 108.288 40.32C109.525 37.504 111.253 35.0507 113.472 32.96C115.691 30.8693 118.293 29.2693 121.28 28.16C124.267 27.008 127.552 26.432 131.136 26.432C135.104 26.432 138.667 27.0933 141.824 28.416C145.024 29.7387 147.712 31.6587 149.888 34.176L143.232 40.32C141.611 38.6133 139.84 37.3547 137.92 36.544C136 35.6907 133.909 35.264 131.648 35.264C129.472 35.264 127.488 35.6053 125.696 36.288C123.904 36.9707 122.347 37.952 121.024 39.232C119.744 40.512 118.741 42.0267 118.016 43.776C117.333 45.5253 116.992 47.4667 116.992 49.6C116.992 51.6907 117.333 53.6107 118.016 55.36C118.741 57.1093 119.744 58.6453 121.024 59.968C122.347 61.248 123.883 62.2293 125.632 62.912C127.424 63.5947 129.387 63.936 131.52 63.936C133.568 63.936 135.552 63.616 137.472 62.976C139.435 62.2933 141.333 61.1627 143.168 59.584L149.056 67.072C146.624 68.9067 143.787 70.3147 140.544 71.296C137.344 72.2773 134.144 72.768 130.944 72.768ZM139.584 65.728V48.896H149.056V67.072L139.584 65.728ZM175.071 72.512C171.146 72.512 167.69 71.744 164.703 70.208C161.759 68.672 159.476 66.5813 157.855 63.936C156.234 61.248 155.423 58.1973 155.423 54.784C155.423 51.328 156.212 48.2773 157.791 45.632C159.412 42.944 161.61 40.8533 164.383 39.36C167.156 37.824 170.292 37.056 173.791 37.056C177.162 37.056 180.191 37.7813 182.879 39.232C185.61 40.64 187.764 42.688 189.343 45.376C190.922 48.0213 191.711 51.2 191.711 54.912C191.711 55.296 191.69 55.744 191.647 56.256C191.604 56.7253 191.562 57.1733 191.519 57.6H163.551V51.776H186.271L182.431 53.504C182.431 51.712 182.068 50.1547 181.343 48.832C180.618 47.5093 179.615 46.4853 178.335 45.76C177.055 44.992 175.562 44.608 173.855 44.608C172.148 44.608 170.634 44.992 169.311 45.76C168.031 46.4853 167.028 47.5307 166.303 48.896C165.578 50.2187 165.215 51.7973 165.215 53.632V55.168C165.215 57.0453 165.62 58.7093 166.431 60.16C167.284 61.568 168.458 62.656 169.951 63.424C171.487 64.1493 173.279 64.512 175.327 64.512C177.162 64.512 178.762 64.2347 180.127 63.68C181.535 63.1253 182.815 62.2933 183.967 61.184L189.279 66.944C187.7 68.736 185.716 70.1227 183.327 71.104C180.938 72.0427 178.186 72.512 175.071 72.512ZM212.438 72.512C208.385 72.512 205.227 71.488 202.966 69.44C200.705 67.3493 199.574 64.256 199.574 60.16V29.952H209.558V60.032C209.558 61.4827 209.942 62.6133 210.71 63.424C211.478 64.192 212.523 64.576 213.846 64.576C215.425 64.576 216.769 64.1493 217.878 63.296L220.566 70.336C219.542 71.0613 218.305 71.616 216.854 72C215.446 72.3413 213.974 72.512 212.438 72.512ZM194.262 46.016V38.336H218.134V46.016H194.262ZM226.171 72V24.512H236.155V72H226.171ZM261.805 72.512C258.135 72.512 254.871 71.744 252.013 70.208C249.197 68.672 246.957 66.5813 245.293 63.936C243.671 61.248 242.861 58.1973 242.861 54.784C242.861 51.328 243.671 48.2773 245.293 45.632C246.957 42.944 249.197 40.8533 252.013 39.36C254.871 37.824 258.135 37.056 261.805 37.056C265.431 37.056 268.674 37.824 271.533 39.36C274.391 40.8533 276.631 42.9227 278.253 45.568C279.874 48.2133 280.685 51.2853 280.685 54.784C280.685 58.1973 279.874 61.248 278.253 63.936C276.631 66.5813 274.391 68.672 271.533 70.208C268.674 71.744 265.431 72.512 261.805 72.512ZM261.805 64.32C263.469 64.32 264.962 63.936 266.285 63.168C267.607 62.4 268.653 61.312 269.421 59.904C270.189 58.4533 270.573 56.7467 270.573 54.784C270.573 52.7787 270.189 51.072 269.421 49.664C268.653 48.256 267.607 47.168 266.285 46.4C264.962 45.632 263.469 45.248 261.805 45.248C260.141 45.248 258.647 45.632 257.325 46.4C256.002 47.168 254.935 48.256 254.125 49.664C253.357 51.072 252.973 52.7787 252.973 54.784C252.973 56.7467 253.357 58.4533 254.125 59.904C254.935 61.312 256.002 62.4 257.325 63.168C258.647 63.936 260.141 64.32 261.805 64.32ZM287.358 72V37.568H296.894V47.296L295.55 44.48C296.574 42.048 298.217 40.2133 300.478 38.976C302.739 37.696 305.491 37.056 308.734 37.056V46.272C308.307 46.2293 307.923 46.208 307.582 46.208C307.241 46.1653 306.878 46.144 306.494 46.144C303.763 46.144 301.545 46.9333 299.838 48.512C298.174 50.048 297.342 52.4587 297.342 55.744V72H287.358ZM331.509 72.512C327.583 72.512 324.127 71.744 321.141 70.208C318.197 68.672 315.914 66.5813 314.293 63.936C312.671 61.248 311.861 58.1973 311.861 54.784C311.861 51.328 312.65 48.2773 314.229 45.632C315.85 42.944 318.047 40.8533 320.821 39.36C323.594 37.824 326.73 37.056 330.229 37.056C333.599 37.056 336.629 37.7813 339.317 39.232C342.047 40.64 344.202 42.688 345.781 45.376C347.359 48.0213 348.149 51.2 348.149 54.912C348.149 55.296 348.127 55.744 348.085 56.256C348.042 56.7253 347.999 57.1733 347.957 57.6H319.989V51.776H342.708L338.869 53.504C338.869 51.712 338.506 50.1547 337.781 48.832C337.055 47.5093 336.053 46.4853 334.773 45.76C333.493 44.992 331.999 44.608 330.293 44.608C328.586 44.608 327.071 44.992 325.749 45.76C324.469 46.4853 323.466 47.5307 322.741 48.896C322.015 50.2187 321.653 51.7973 321.653 53.632V55.168C321.653 57.0453 322.058 58.7093 322.869 60.16C323.722 61.568 324.895 62.656 326.389 63.424C327.925 64.1493 329.717 64.512 331.765 64.512C333.599 64.512 335.199 64.2347 336.565 63.68C337.973 63.1253 339.253 62.2933 340.405 61.184L345.717 66.944C344.138 68.736 342.154 70.1227 339.765 71.104C337.375 72.0427 334.623 72.512 331.509 72.512Z" fill="black"/>
<rect x="116" y="13" width="27" height="7" fill="black"/>
</svg>
